<?xml version="1.0" standalone="no"?><!DOCTYPE svg PUBLIC "-//W3C//DTD SVG 1.1//EN" "http://www.w3.org/Graphics/SVG/1.1/DTD/svg11.dtd"><svg t="1605845530805" class="icon" viewBox="0 0 1024 1024" version="1.1" xmlns="http://www.w3.org/2000/svg" p-id="1114" xmlns:xlink="http://www.w3.org/1999/xlink" width="200" height="200"><defs><style type="text/css"></style></defs><path d="M529.2 820.4c-37.4 0-74.8-9.1-104-27.3L240.5 677.7c-10.3-6.4-13.4-20-7-30.3s20-13.4 30.3-7l184.7 115.4c43.7 27.3 117.6 27.3 161.3 0l184.7-115.4c10.3-6.4 23.9-3.3 30.3 7 6.4 10.3 3.3 23.9-7 30.3L633.2 793.1c-29.2 18.2-66.6 27.3-104 27.3z" p-id="1115"></path><path d="M529.2 662.8c-37.4 0-74.8-9.1-104-27.3L240.5 520.1c-31.3-19.6-48.6-46.7-48.6-76.4s17.3-56.8 48.6-76.4l184.7-115.4c58.3-36.4 149.7-36.5 208 0l184.7 115.4c31.3 19.6 48.6 46.7 48.6 76.4s-17.3 56.8-48.6 76.4L633.2 635.5c-29.2 18.2-66.6 27.3-104 27.3z m0-394.1c-29.4 0-58.8 6.8-80.7 20.5L263.9 404.7c-18 11.2-27.9 25.1-27.9 39s9.9 27.8 27.9 39l184.7 115.4c43.7 27.3 117.6 27.3 161.3 0l184.7-115.4c18-11.2 27.9-25.1 27.9-39s-9.9-27.8-27.9-39L609.9 289.3c-21.9-13.7-51.3-20.6-80.7-20.6z" p-id="1116"></path></svg>