<?xml version="1.0" standalone="no"?><!DOCTYPE svg PUBLIC "-//W3C//DTD SVG 1.1//EN" "http://www.w3.org/Graphics/SVG/1.1/DTD/svg11.dtd"><svg t="1605845522823" class="icon" viewBox="0 0 1024 1024" version="1.1" xmlns="http://www.w3.org/2000/svg" p-id="984" xmlns:xlink="http://www.w3.org/1999/xlink" width="200" height="200"><defs><style type="text/css"></style></defs><path d="M554.666667 1024h-85.333334c-36.266667 0-64-27.733333-64-64v-78.933333c-27.733333-8.533333-53.333333-19.2-78.933333-32l-55.466667 55.466666c-25.6 25.6-66.133333 25.6-89.6 0l-59.733333-59.733333c-25.6-25.6-25.6-66.133333 0-89.6l55.466667-55.466667c-12.8-25.6-25.6-51.2-32-78.933333H64c-36.266667 0-64-27.733333-64-64v-85.333333c0-36.266667 27.733333-64 64-64h78.933333c8.533333-27.733333 19.2-53.333333 32-78.933334l-55.466666-55.466666c-25.6-25.6-25.6-66.133333 0-89.6l59.733333-59.733334c25.6-25.6 66.133333-25.6 89.6 0l55.466667 55.466667c25.6-12.8 51.2-25.6 78.933333-32V64c0-36.266667 27.733333-64 64-64h85.333333c36.266667 0 64 27.733333 64 64v78.933333c27.733333 8.533333 53.333333 19.2 78.933334 32l55.466666-55.466666c25.6-25.6 66.133333-25.6 89.6 0l59.733334 59.733333c25.6 25.6 25.6 66.133333 0 89.6l-55.466667 55.466667c12.8 25.6 25.6 51.2 32 78.933333H960c36.266667 0 64 27.733333 64 64v85.333333c0 36.266667-27.733333 64-64 64h-78.933333c-8.533333 27.733333-19.2 53.333333-32 78.933334l55.466666 55.466666c25.6 25.6 25.6 66.133333 0 89.6l-59.733333 59.733334c-25.6 25.6-66.133333 25.6-89.6 0l-55.466667-55.466667c-25.6 12.8-51.2 25.6-78.933333 32V960c-2.133333 36.266667-29.866667 64-66.133333 64zM320 793.6l14.933333 8.533333c29.866667 19.2 61.866667 32 98.133334 40.533334l17.066666 4.266666V960c0 12.8 8.533333 21.333333 21.333334 21.333333h85.333333c12.8 0 21.333333-8.533333 21.333333-21.333333v-113.066667l17.066667-4.266666c34.133333-8.533333 66.133333-21.333333 98.133333-40.533334l14.933334-8.533333 78.933333 78.933333c8.533333 8.533333 21.333333 8.533333 29.866667 0l59.733333-59.733333c8.533333-8.533333 8.533333-21.333333 0-29.866667L793.6 704l8.533333-14.933333c19.2-29.866667 32-61.866667 40.533334-98.133334l4.266666-17.066666H960c12.8 0 21.333333-8.533333 21.333333-21.333334v-85.333333c0-12.8-8.533333-21.333333-21.333333-21.333333h-113.066667l-4.266666-17.066667c-8.533333-34.133333-21.333333-66.133333-40.533334-98.133333l-8.533333-10.666667 78.933333-78.933333c8.533333-8.533333 8.533333-21.333333 0-29.866667L812.8 149.333333c-8.533333-8.533333-21.333333-8.533333-29.866667 0L704 230.4l-14.933333-8.533333c-29.866667-19.2-61.866667-32-98.133334-40.533334l-14.933333-4.266666V64c0-12.8-8.533333-21.333333-21.333333-21.333333h-85.333334c-12.8 0-21.333333 8.533333-21.333333 21.333333v113.066667l-17.066667 4.266666c-34.133333 8.533333-66.133333 21.333333-98.133333 40.533334l-12.8 8.533333L241.066667 149.333333c-8.533333-8.533333-21.333333-8.533333-29.866667 0L149.333333 211.2c-8.533333 8.533333-8.533333 21.333333 0 29.866667l78.933334 78.933333-8.533334 14.933333c-19.2 29.866667-32 61.866667-40.533333 98.133334l-2.133333 14.933333H64c-12.8 0-21.333333 8.533333-21.333333 21.333333v85.333334c0 12.8 8.533333 21.333333 21.333333 21.333333h113.066667l4.266666 17.066667c8.533333 34.133333 21.333333 66.133333 40.533334 98.133333l8.533333 14.933333L149.333333 782.933333c-8.533333 8.533333-8.533333 21.333333 0 29.866667L211.2 874.666667c8.533333 8.533333 21.333333 8.533333 29.866667 0l78.933333-81.066667z" p-id="985"></path><path d="M520.533333 710.4c-106.666667 0-192-85.333333-192-192s85.333333-192 192-192 192 85.333333 192 192c0 104.533333-87.466667 192-192 192z m0-341.333333c-83.2 0-149.333333 66.133333-149.333333 149.333333s66.133333 149.333333 149.333333 149.333333 149.333333-66.133333 149.333334-149.333333-68.266667-149.333333-149.333334-149.333333z" p-id="986"></path></svg>