<?xml version="1.0" standalone="no"?><!DOCTYPE svg PUBLIC "-//W3C//DTD SVG 1.1//EN" "http://www.w3.org/Graphics/SVG/1.1/DTD/svg11.dtd"><svg t="1605845540222" class="icon" viewBox="0 0 1024 1024" version="1.1" xmlns="http://www.w3.org/2000/svg" p-id="1373" xmlns:xlink="http://www.w3.org/1999/xlink" width="200" height="200"><defs><style type="text/css"></style></defs><path d="M661.333333 682.666667h-42.666666c-12.8 0-21.333333-8.533333-21.333334-21.333334s8.533333-21.333333 21.333334-21.333333h42.666666c12.8 0 21.333333 8.533333 21.333334 21.333333s-8.533333 21.333333-21.333334 21.333334zM448 426.666667h-85.333333c-12.8 0-21.333333-8.533333-21.333334-21.333334s8.533333-21.333333 21.333334-21.333333h85.333333c12.8 0 21.333333 8.533333 21.333333 21.333333s-8.533333 21.333333-21.333333 21.333334zM448 554.666667h-85.333333c-12.8 0-21.333333-8.533333-21.333334-21.333334s8.533333-21.333333 21.333334-21.333333h85.333333c12.8 0 21.333333 8.533333 21.333333 21.333333s-8.533333 21.333333-21.333333 21.333334zM448 682.666667h-85.333333c-12.8 0-21.333333-8.533333-21.333334-21.333334s8.533333-21.333333 21.333334-21.333333h85.333333c12.8 0 21.333333 8.533333 21.333333 21.333333s-8.533333 21.333333-21.333333 21.333334zM661.333333 554.666667h-42.666666c-12.8 0-21.333333-8.533333-21.333334-21.333334s8.533333-21.333333 21.333334-21.333333h42.666666c12.8 0 21.333333 8.533333 21.333334 21.333333s-8.533333 21.333333-21.333334 21.333334z" p-id="1374"></path><path d="M554.666667 768h277.333333c12.8 0 21.333333 8.533333 21.333333 21.333333s-8.533333 21.333333-21.333333 21.333334h-640c-12.8 0-21.333333-8.533333-21.333333-21.333334s8.533333-21.333333 21.333333-21.333333H256V366.933333c0-38.4 4.266667-55.466667 12.8-68.266666 4.266667-12.8 17.066667-25.6 29.866667-29.866667 12.8-8.533333 29.866667-12.8 68.266666-12.8h81.066667c38.4 0 51.2 4.266667 64 12.8 12.8 8.533333 25.6 17.066667 34.133333 34.133333s8.533333 25.6 8.533334 64v29.866667c12.8-8.533333 29.866667-12.8 64-12.8h42.666666c34.133333 0 51.2 4.266667 64 12.8 12.8 8.533333 25.6 17.066667 34.133334 34.133333 8.533333 12.8 12.8 29.866667 12.8 64v213.333334c0 12.8-8.533333 21.333333-21.333334 21.333333s-21.333333-8.533333-21.333333-21.333333v-213.333334c0-25.6 0-34.133333-4.266667-42.666666-4.266667-8.533333-8.533333-12.8-12.8-12.8-8.533333-4.266667-17.066667-4.266667-42.666666-4.266667h-42.666667c-25.6 0-34.133333 0-42.666667 4.266667-8.533333 4.266667-12.8 8.533333-12.8 12.8-4.266667 8.533333-4.266667 17.066667-4.266666 42.666666V768z m-42.666667 0V366.933333c0-29.866667 0-38.4-4.266667-46.933333-4.266667-8.533333-8.533333-12.8-12.8-12.8-12.8-8.533333-21.333333-8.533333-51.2-8.533333H366.933333c-29.866667 0-38.4 0-46.933333 4.266666-8.533333 4.266667-12.8 8.533333-17.066667 17.066667-4.266667 8.533333-4.266667 17.066667-4.266666 46.933333V768h213.333333z" p-id="1375"></path></svg>