<?xml version="1.0" standalone="no"?><!DOCTYPE svg PUBLIC "-//W3C//DTD SVG 1.1//EN" "http://www.w3.org/Graphics/SVG/1.1/DTD/svg11.dtd"><svg t="1605845537367" class="icon" viewBox="0 0 1024 1024" version="1.1" xmlns="http://www.w3.org/2000/svg" p-id="1244" xmlns:xlink="http://www.w3.org/1999/xlink" width="200" height="200"><defs><style type="text/css"></style></defs><path d="M484.049414 64.75277l-55.920614 0 0 83.863013C224.085638 170.972976 64.761979 345.682044 64.761979 553.934065c0 223.616964 181.685969 405.313166 405.293723 405.313166 164.92933 0 307.510676-99.234095 370.387725-240.394069l62.878073 16.771989c30.750351-50.320059 55.915497-121.605615 55.915497-208.252021C959.236997 271.607978 735.620034 64.75277 484.049414 64.75277L484.049414 64.75277M470.055702 903.33685c-192.871729 0-349.402785-156.536172-349.402785-349.402785 0-176.11509 136.966465-324.262198 307.475883-349.411995l0 375.958604 355.008456 124.393101C735.620034 823.667346 600.029916 903.33685 470.055702 903.33685L470.055702 903.33685M862.791411 668.538219 484.049414 539.954679 484.049414 120.658034c218.026642-1.396813 416.484599 187.281407 416.484599 406.714072C900.534014 586.070996 885.158838 629.398804 862.791411 668.538219L862.791411 668.538219M862.791411 668.538219" p-id="1245"></path></svg>