<?xml version="1.0" standalone="no"?><!DOCTYPE svg PUBLIC "-//W3C//DTD SVG 1.1//EN" "http://www.w3.org/Graphics/SVG/1.1/DTD/svg11.dtd"><svg t="1606363052303" class="icon" viewBox="0 0 1024 1024" version="1.1" xmlns="http://www.w3.org/2000/svg" p-id="8588" xmlns:xlink="http://www.w3.org/1999/xlink" width="200" height="200"><defs><style type="text/css"></style></defs><path d="M692.032017 348.979086H250.054222c-11.408211 0-20.655822-9.247612-20.655823-20.655822s9.247612-20.655822 20.655823-20.655823h441.977795c11.408211 0 20.655822 9.247612 20.655822 20.655823s-9.247612 20.655822-20.655822 20.655822zM613.47999 548.280919H250.054222c-11.408211 0-20.655822-9.247612-20.655823-20.655822s9.247612-20.655822 20.655823-20.655823h363.425768c11.408211 0 20.655822 9.247612 20.655822 20.655823s-9.247612 20.655822-20.655822 20.655822zM471.043635 734.231862H250.054222c-11.408211 0-20.655822-9.247612-20.655823-20.655823s9.247612-20.655822 20.655823-20.655822h220.989413c11.408211 0 20.655822 9.247612 20.655823 20.655822s-9.247612 20.655822-20.655823 20.655823z" p-id="8589"></path><path d="M471.043635 954.986832H109.311645c-16.64756 0-30.191583-13.340563-30.191583-29.738188V101.430416c0-16.397625 13.544023-29.73922 30.191583-29.739221h121.737154c11.408211 0 20.655822 9.247612 20.655823 20.655823s-9.247612 20.655822-20.655823 20.655822H120.430674v800.671314h350.611929c11.408211 0 20.655822 9.248644 20.655822 20.655823 0.001033 11.408211-9.246579 20.656855-20.65479 20.656855zM842.310354 467.77795c-11.408211 0-20.655822-9.247612-20.655823-20.655822V113.00284H692.02582c-11.408211 0-20.655822-9.247612-20.655823-20.655822s9.247612-20.655822 20.655823-20.655823h140.747741c16.64756 0 30.191583 13.340563 30.191582 29.739221v345.691712c0.001033 11.408211-9.246579 20.655822-20.654789 20.655822zM592.824167 162.781306h-261.967467c-22.779241 0-41.311645-18.532404-41.311644-41.311644V71.229538c0-22.779241 18.532404-41.311645 41.311644-41.311645H592.823135c22.779241 0 41.311645 18.532404 41.311644 41.311645v50.240124c0.001033 22.779241-18.532404 41.311645-41.310612 41.311644z m-261.960237-41.327136c0.012393 0 0.036148 0.022721 0.053705 0.032016l261.906532-0.016524c-0.029951-0.003098 0.005164-0.039246 0.016525-0.060935l-0.016525-50.170927c-0.006197 0.01859-0.03718-0.013426-0.060934-0.024787l-261.89827 0.016525c0.021689 0.003098-0.013426 0.039246-0.023755 0.060935l0.016525 50.170926c0-0.005164 0.002066-0.00723 0.006197-0.007229zM767.26362 1008.35528c-63.061193 0-122.346501-24.556674-166.936225-69.146398-44.589724-44.589724-69.146398-103.876065-69.146398-166.936225s24.556674-122.345469 69.146398-166.936225c44.589724-44.589724 103.875032-69.146398 166.936225-69.146398s122.346501 24.556674 166.936225 69.146398c44.590757 44.589724 69.147431 103.876065 69.147431 166.936225s-24.556674 122.345469-69.147431 166.936225c-44.589724 44.589724-103.875032 69.146398-166.936225 69.146398z m0-430.853602c-107.39685 0-194.770979 87.374129-194.770979 194.770979s87.374129 194.770979 194.770979 194.770978 194.772011-87.374129 194.772011-194.770978-87.375161-194.770979-194.772011-194.770979z" p-id="8590"></path><path d="M842.478699 760.396592H692.049574c-11.408211 0-20.655822-9.247612-20.655822-20.655823s9.247612-20.655822 20.655822-20.655822h150.429125c11.408211 0 20.655822 9.247612 20.655822 20.655822s-9.247612 20.655822-20.655822 20.655823z" p-id="8591"></path><path d="M767.26362 900.872708c-11.408211 0-20.655822-9.247612-20.655822-20.655822V728.117738c0-11.408211 9.247612-20.655822 20.655822-20.655822s20.655822 9.247612 20.655822 20.655822v152.099148c0 11.407178-9.247612 20.655822-20.655822 20.655822z" p-id="8592"></path><path d="M842.310354 814.625355H692.217919c-11.408211 0-20.655822-9.247612-20.655822-20.655822s9.247612-20.655822 20.655822-20.655823h150.092435c11.408211 0 20.655822 9.247612 20.655822 20.655823s-9.247612 20.655822-20.655822 20.655822zM771.021947 749.935451a20.579396 20.579396 0 0 1-13.617351-5.130907l-53.808417-47.222308c-8.574232-7.524916-9.425252-20.575265-1.900336-29.150529 7.523883-8.574232 20.574232-9.424219 29.150529-1.900336l53.808418 47.222308c8.574232 7.524916 9.425252 20.575265 1.900335 29.15053a20.607281 20.607281 0 0 1-15.533178 7.031242z" p-id="8593"></path><path d="M767.702556 749.935451a20.604183 20.604183 0 0 1-15.533178-7.032275c-7.524916-8.574232-6.673896-21.62458 1.900335-29.149497l53.80945-47.222308c8.575265-7.524916 21.62458-6.673896 29.15053 1.900336 7.524916 8.574232 6.673896 21.62458-1.900336 29.149496l-53.80945 47.222308a20.57733 20.57733 0 0 1-13.617351 5.13194z" p-id="8594"></path></svg>